<svg width="375" height="91" viewBox="0 0 375 91" fill="#fdfaf5" xmlns="http://www.w3.org/2000/svg">
<rect x="0.530029" y="0.799988" width="374.39" height="89.84" rx="36" fill="#FDFAF5"/>
<g clip-path="url(#clip0_1_837)">
<g clip-path="url(#clip1_1_837)">
<path d="M103.218 46.7586C103.218 56.193 95.771 63.8408 86.5851 63.8408C77.3991 63.8408 69.9524 56.193 69.9524 46.7586C69.9524 37.3244 77.3991 29.6765 86.5851 29.6765C95.771 29.6765 103.218 37.3244 103.218 46.7586Z" fill="#3658D3"/>
<path d="M140.08 46.7586C140.08 56.193 132.632 63.8408 123.447 63.8408C114.261 63.8408 106.814 56.193 106.814 46.7586C106.814 37.3244 114.261 29.6765 123.447 29.6765C132.632 29.6765 140.08 37.3244 140.08 46.7586Z" fill="#3658D3"/>
<path d="M224.141 27.8785L244.775 63.6163H203.508L224.141 27.8785Z" fill="#EC5212"/>
<path d="M50.909 28.4924C59.6798 28.4924 66.9833 35.1955 66.9833 46.1007C66.9833 57.0058 59.7131 63.709 50.909 63.709C46.0401 63.709 41.7714 61.7414 39.8371 57.973L39.6037 62.942H31.7V11.7178H40.0039V33.8949C42.0382 30.3266 46.1735 28.4924 50.909 28.4924ZM49.0082 56.7391C54.3773 56.7391 58.646 52.6371 58.646 46.1007C58.646 39.5643 54.3773 35.4623 49.0082 35.4623C43.6056 35.4623 39.3702 39.4976 39.3702 46.1007C39.3702 52.7038 43.5722 56.7391 49.0082 56.7391Z" fill="#383030"/>
<path d="M158.935 62.942C152.733 62.942 149.064 59.2735 149.064 52.8372V35.5957H142.327V29.1593C149.131 29.1593 150.832 27.4919 150.832 18.9212H157.468V29.1593H164.705V35.5957H157.468V51.9368C157.468 55.0716 159.102 56.539 161.636 56.539H164.705V62.942H158.935Z" fill="#383030"/>
<path d="M186.807 63.5756C176.501 63.5756 169.098 56.539 169.098 46.0006C169.098 35.4957 176.501 28.4924 186.807 28.4924C195.01 28.4924 201.247 32.8277 203.014 40.498L195.31 41.4318C194.076 37.2298 190.908 35.1288 186.74 35.1288C181.27 35.1288 177.402 39.4642 177.402 46.0006C177.402 52.5704 181.27 56.8724 186.74 56.8724C190.908 56.8724 194.076 54.7715 195.31 50.5695L203.014 51.5032C201.247 59.2068 194.843 63.5756 186.807 63.5756Z" fill="#383030"/>
<path d="M286.758 28.4924C293.696 28.4924 298.331 32.2275 298.331 39.2308V62.942H289.993V41.5319C289.993 37.1631 287.325 35.2622 284.291 35.2622C280.689 35.2622 277.655 37.4299 277.655 43.2993V62.942H269.25V41.6986C269.25 37.2298 266.616 35.2622 263.415 35.2622C259.913 35.2622 256.811 37.4299 256.811 43.6662V62.942H248.541V29.1593H256.811V33.2613C258.945 30.1932 262.314 28.4924 266.416 28.4924C271.118 28.4924 274.753 30.2932 276.488 33.7282C278.755 30.2599 282.357 28.4924 286.758 28.4924Z" fill="#383030"/>
<path d="M326.744 28.4924C335.548 28.4924 342.819 35.0955 342.819 46.1007C342.819 57.1059 335.548 63.709 326.744 63.709C322.043 63.709 317.906 61.6747 315.872 58.2064V79.5831H307.569V29.1593H315.472L315.706 34.2951C317.673 30.6267 321.909 28.4924 326.744 28.4924ZM324.877 56.7391C330.179 56.7391 334.481 52.7371 334.481 46.1007C334.481 39.4642 330.179 35.4957 324.877 35.4957C319.44 35.4957 315.205 39.8311 315.205 46.1007C315.205 52.4037 319.44 56.7391 324.877 56.7391Z" fill="#383030"/>
</g>
</g>
<defs>
<clipPath id="clip0_1_837">
<rect width="312.02" height="89.84" fill="white" transform="translate(31.7 0.799988)"/>
</clipPath>
<clipPath id="clip1_1_837">
<rect width="312.02" height="68.0044" fill="white" transform="translate(31.7 11.7178)"/>
</clipPath>
</defs>
</svg>
