<svg width="306" height="360" viewBox="0 0 306 360" fill="none" xmlns="http://www.w3.org/2000/svg">
<mask id="mask0_1_750" style="mask-type:luminance" maskUnits="userSpaceOnUse" x="60" y="-4" width="307" height="377">
<path d="M366.872 2.60842L68.1758 -4L59.9998 365.547L358.696 372.156L366.872 2.60842Z" fill="white"/>
</mask>
<g mask="url(#mask0_1_750)">
<path d="M288.676 353.142C210.482 351.412 148.805 272.401 150.923 176.671C153.041 80.9392 218.152 4.72688 296.346 6.45687L288.676 353.136L288.676 353.142Z" fill="#FFBABA"/>
<path d="M288.676 353.142C210.482 351.412 148.805 272.401 150.923 176.671C153.041 80.9392 218.152 4.72688 296.346 6.45687L288.676 353.136L288.676 353.142Z" fill="#FFD37D"/>
<path d="M288.676 353.142C210.482 351.412 148.805 272.401 150.923 176.671C153.041 80.9392 218.152 4.72688 296.346 6.45687L288.676 353.136L288.676 353.142Z" fill="#FFD37D"/>
</g>
<mask id="mask1_1_750" style="mask-type:luminance" maskUnits="userSpaceOnUse" x="-62" y="-10" width="307" height="377">
<path d="M244.872 -3.39158L-53.8242 -10L-62.0002 359.547L236.696 366.156L244.872 -3.39158Z" fill="white"/>
</mask>
<g mask="url(#mask1_1_750)">
<path d="M166.676 347.142C88.4817 345.412 26.8052 266.401 28.9232 170.671C31.0411 74.9392 96.1518 -1.27312 174.346 0.456872L166.676 347.136L166.676 347.142Z" fill="#FFBABA"/>
<path d="M166.676 347.142C88.4817 345.412 26.8052 266.401 28.9232 170.671C31.0411 74.9392 96.1518 -1.27312 174.346 0.456872L166.676 347.136L166.676 347.142Z" fill="#FFD37D"/>
<path d="M166.676 347.142C88.4817 345.412 26.8052 266.401 28.9232 170.671C31.0411 74.9392 96.1518 -1.27312 174.346 0.456872L166.676 347.136L166.676 347.142Z" fill="#FFBABA"/>
</g>
</svg>
