<svg width="201" height="52" viewBox="0 0 201 52" fill="none" xmlns="http://www.w3.org/2000/svg">
<g clip-path="url(#clip0_1_101)">
<g clip-path="url(#clip1_1_101)">
<g clip-path="url(#clip2_1_101)">
<path d="M200.938 46.9502C200.938 49.4935 198.876 51.5559 196.332 51.5559C193.789 51.5559 191.726 49.4935 191.726 46.9498C191.726 44.4062 193.789 42.3441 196.332 42.3441C198.876 42.3441 200.938 44.4062 200.938 46.9502Z" fill="#F78D2F"/>
<path d="M72.1678 25.8599C70.4207 25.8599 68.7782 25.5456 67.2407 24.9167C65.7029 24.2877 64.3691 23.4085 63.2396 22.2783C62.1094 21.1485 61.2129 19.809 60.5489 18.2595C59.8847 16.7104 59.5527 15.0269 59.5527 13.2102V13.1402C59.5527 11.3701 59.8787 9.70995 60.5313 8.16048C61.1832 6.61135 62.0804 5.26019 63.2219 4.10701C64.3631 2.95382 65.7206 2.05094 67.2931 1.39869C68.8655 0.746437 70.5833 0.420145 72.4474 0.420145C73.7056 0.420145 74.8464 0.542461 75.872 0.787096C76.8968 1.03173 77.8344 1.38136 78.6849 1.83563C79.5189 2.2783 80.2937 2.82419 80.9913 3.46042C81.6722 4.08266 82.2871 4.77357 82.8261 5.52215L77.7241 9.47098C77.0252 8.58576 76.2562 7.88685 75.4177 7.37458C74.5791 6.86232 73.5656 6.60535 72.3774 6.60535C71.5152 6.60535 70.729 6.77466 70.0187 7.11195C69.3192 7.44165 68.6948 7.91152 68.1843 8.49244C67.6714 9.0747 67.2697 9.76227 66.9784 10.5542C66.6868 11.3464 66.5418 12.185 66.5418 13.0705V13.1402C66.5418 14.0487 66.6868 14.9049 66.9784 15.7085C67.2697 16.5124 67.6717 17.206 68.1843 17.7879C68.6945 18.369 69.319 18.8388 70.0187 19.1681C70.729 19.506 71.5152 19.6747 72.3774 19.6747C73.0063 19.6747 73.5829 19.6047 74.1072 19.4654C74.6315 19.3254 75.1087 19.1221 75.5403 18.8538C75.9782 18.5806 76.3878 18.2645 76.7632 17.9102C77.1649 17.5309 77.544 17.1284 77.8987 16.7047L83.0007 20.3386C82.4256 21.1221 81.7888 21.8583 81.0963 22.5403C80.3973 23.2247 79.6099 23.8124 78.7549 24.2877C77.8814 24.7767 76.9028 25.161 75.8196 25.4409C74.7364 25.7202 73.5186 25.8599 72.1678 25.8599Z" fill="#2E2B2D"/>
<path d="M99.4945 0.734739H92.9599L82.5464 25.3708H89.675L96.1748 8.80713L102.639 25.3708H109.908L99.4945 0.734739Z" fill="#2E2B2D"/>
<path d="M134.614 0.909405H154.252V6.6754H141.288V10.3794H153.029V15.726H141.288V19.605H154.427V25.3708H134.614V0.909405Z" fill="#2E2B2D"/>
<path d="M156.524 0.909405H176.162V6.6754H163.199V10.3794H174.94V15.726H163.199V19.605H176.337V25.3708H156.524V0.909405Z" fill="#2E2B2D"/>
<path d="M134.826 27.0946H141.989L147.825 36.5646L153.661 27.0946H160.825V51.5559H154.08V37.5081L147.842 47.083H147.703L141.5 37.578V51.5559H134.826V27.0946Z" fill="#2E2B2D"/>
<path d="M178.751 26.9198H172.216L161.802 51.5559H168.932L175.431 34.992L181.895 51.5559H189.164L178.751 26.9198Z" fill="#2E2B2D"/>
<path d="M99.7064 26.9198H93.1718L82.7583 51.5559H89.887L96.3869 34.992L102.852 51.5559H110.12L99.7064 26.9198Z" fill="#2E2B2D"/>
<path d="M60.6035 27.0946V51.5559H67.3828V27.0946H60.6035Z" fill="#2E2B2D"/>
<path d="M75.3145 36.7802L83.8418 27.0946H75.8044L67.3828 37.0187L76.0141 51.5559H84.1562L75.3145 36.7802Z" fill="#2E2B2D"/>
<path d="M127.555 16.8443C129.093 16.1924 130.316 15.2488 131.224 14.0136C132.133 12.7791 132.587 11.218 132.587 9.33092V9.26093C132.587 6.86224 131.865 4.96315 130.421 3.565C129.605 2.72644 128.545 2.07452 127.241 1.60825C125.936 1.14264 124.34 0.90934 122.453 0.90934H110.886V25.3708H117.666V6.78025H122.104C123.245 6.78025 124.142 7.01922 124.795 7.49682C125.447 7.97409 125.773 8.702 125.773 9.68054V9.75053C125.773 10.6361 125.459 11.3403 124.829 11.8646C124.201 12.3889 123.303 12.6508 122.139 12.6508H117.666L125.563 25.3708H133.391L127.555 16.8443" fill="#2E2B2D"/>
<path d="M127.767 43.0293C129.305 42.3774 130.528 41.4339 131.436 40.1987C132.345 38.9642 132.799 37.4031 132.799 35.516V35.4463C132.799 33.0473 132.077 31.1482 130.633 29.7504C129.817 28.9115 128.757 28.2599 127.452 27.7933C126.148 27.3277 124.552 27.0944 122.665 27.0944H111.099V51.5559H117.878V32.965H122.316C123.457 32.965 124.355 33.2043 125.007 33.6815C125.659 34.1592 125.985 34.8871 125.985 35.8656V35.9356C125.985 36.8211 125.671 37.5254 125.042 38.0497C124.413 38.5739 123.516 38.8362 122.351 38.8362H117.878L125.775 51.5556H133.603L127.767 43.0293" fill="#2E2B2D"/>
<path d="M195.102 16.8443C196.639 16.1924 197.862 15.2488 198.771 14.0136C199.68 12.7791 200.135 11.218 200.135 9.33092V9.26093C200.135 6.86224 199.412 4.96315 197.968 3.565C197.152 2.72644 196.092 2.07452 194.787 1.60825C193.483 1.14264 191.887 0.90934 190 0.90934H178.433V25.3708H185.214V6.78025H189.652C190.792 6.78025 191.689 7.01922 192.341 7.49682C192.993 7.97409 193.32 8.702 193.32 9.68054V9.75053C193.32 10.6361 193.005 11.3403 192.377 11.8646C191.747 12.3889 190.851 12.6508 189.685 12.6508H185.214L193.111 25.3708H200.938L195.102 16.8443Z" fill="#2E2B2D"/>
<path d="M10.857 46.271L18.9793 32.7651C18.9793 32.7651 26.1517 17.8307 34.4673 33.4097L39.5913 42.0905C39.5913 42.0905 40.7722 44.1233 41.9983 46.271C47.9822 41.6229 51.8337 34.3599 51.8337 26.1959C51.8337 12.1647 40.4589 0.790531 26.4277 0.790531C12.3965 0.790531 1.02197 12.1647 1.02197 26.1959C1.02197 34.3599 4.87314 41.6229 10.857 46.271Z" fill="#2E2B2D"/>
<path d="M37.5158 49.0302L33.9953 43.7432L31.9215 40.8569C31.9215 40.8569 29.7025 37.944 27.8344 37.6467C27.8344 37.6467 25.0221 36.6835 21.9665 40.0664C21.9665 40.0664 19.7464 42.9517 19.5091 43.3806L15.6223 49.1942C18.9019 50.7373 22.5634 51.6016 26.4276 51.6016C30.4091 51.6016 34.1759 50.685 37.5302 49.0526L37.5158 49.0302Z" fill="#F78D2F"/>
</g>
</g>
</g>
<defs>
<clipPath id="clip0_1_101">
<rect width="200" height="51.66" fill="white" transform="translate(0.97998 0.309814)"/>
</clipPath>
<clipPath id="clip1_1_101">
<rect width="200" height="51.66" fill="white" transform="translate(0.97998 0.309814)"/>
</clipPath>
<clipPath id="clip2_1_101">
<rect width="199.974" height="51.66" fill="white" transform="translate(0.99292 0.309814)"/>
</clipPath>
</defs>
</svg>
