<svg width="109" height="41" viewBox="0 0 109 41" fill="none" xmlns="http://www.w3.org/2000/svg">
<g clip-path="url(#clip0_1_84)">
<g clip-path="url(#clip1_1_84)">
<g clip-path="url(#clip2_1_84)">
<path d="M10.8048 18.5711C13.6288 18.5711 16.1968 17.364 17.9684 15.4387L14.3221 12.2547C13.475 13.3329 12.2173 14.052 10.8048 14.052C8.39148 14.052 6.33726 11.9462 6.33726 9.42977C6.33726 6.93999 8.39059 4.83421 10.8048 4.83421C12.1915 4.83421 13.475 5.55332 14.2964 6.63154L17.9684 3.42265C17.0511 2.4413 15.9418 1.65898 14.7095 1.12425C13.4772 0.589523 12.1481 0.313804 10.8048 0.314209C5.59326 0.315098 1.20215 4.4751 1.20215 9.42977C1.20215 14.3853 5.59326 18.5711 10.8048 18.5711ZM28.547 18.5711C33.7586 18.5711 38.1497 14.3853 38.1497 9.42977C38.1497 4.4751 33.7586 0.315098 28.547 0.315098C23.3346 0.315098 18.9444 4.4751 18.9444 9.42977C18.9444 14.3853 23.3346 18.5711 28.547 18.5711ZM28.547 14.052C26.1328 14.052 24.0795 11.9462 24.0795 9.42977C24.0795 6.93999 26.1328 4.83421 28.547 4.83421C30.9604 4.83421 33.0146 6.93999 33.0146 9.42977C33.0146 11.9462 30.9604 14.052 28.547 14.052ZM48.779 18.5711C53.7088 18.5711 57.1755 15.2075 57.1755 10.4315V0.623543H52.1941V10.1747C52.1941 12.4342 50.7817 14.052 48.779 14.052C46.7764 14.052 45.3639 12.4342 45.3639 10.1747V0.623543H40.3844V10.4315C40.3844 15.2075 43.851 18.5711 48.7799 18.5711H48.779ZM65.0573 18.2627V12.9471H66.5977L70.3213 18.2627H75.995L71.7844 12.2804C73.9417 11.2787 75.2768 9.30177 75.2768 6.78532C75.2768 3.16488 72.4777 0.623543 68.5239 0.623543H60.0768V18.2627H65.0573ZM68.1133 8.42888H65.0573V5.14265H68.1133C69.2937 5.14265 70.1417 5.83599 70.1417 6.78532C70.1417 7.73554 69.2937 8.42888 68.1133 8.42888ZM85.059 18.5711C89.475 18.5711 92.3248 16.388 92.3248 12.6653C92.3248 9.30177 89.7577 8.19777 85.6493 7.32488C83.1337 6.78532 82.5168 6.50265 82.5168 5.60488C82.5168 4.93732 83.1079 4.44932 84.3141 4.44932C85.9062 4.44932 87.7035 5.03954 89.347 6.22088L91.8377 2.70265C89.8857 1.13732 87.4981 0.315987 84.4421 0.315987C80.2581 0.315987 77.4848 2.60132 77.4848 6.11865C77.4848 9.78977 80.4377 10.7915 84.2635 11.6653C86.7026 12.2298 87.3186 12.3587 87.3186 13.2049C87.3186 13.9755 86.5995 14.4378 85.2386 14.4378C83.1586 14.4378 81.2075 13.6929 79.4101 12.2813L76.6368 15.5933C78.8715 17.5702 81.875 18.5711 85.059 18.5711ZM108.758 18.2618V13.82H99.5399V11.4831H107.936V7.04221H99.5399V5.06532H108.758V0.623543H94.5595V18.2627H108.758V18.2618Z" fill="#50922F"/>
<path d="M6.93105 39.4447V34.0296H8.49638L12.2795 39.4447H18.0457L13.7666 33.3496C15.9586 32.3291 17.3151 30.3149 17.3151 27.7504C17.3151 24.0616 14.4706 21.4722 10.4528 21.4722H1.87061V39.4456H6.93194L6.93105 39.4447ZM10.0911 29.4313H7.00483V26.0936H10.0911C11.2839 26.0936 12.1399 26.7976 12.1399 27.7629C12.1399 28.7273 11.2839 29.4313 10.0911 29.4313ZM34.4777 39.4447V34.9184H25.1444V32.538H33.6457V28.0127H25.1435V25.9976H34.4777V21.4731H20.0999V39.4464H34.4786L34.4777 39.4447ZM42.0937 39.4447V34.0296H45.6066C49.6146 34.0296 52.451 31.4393 52.451 27.7504C52.451 24.0616 49.6146 21.4731 45.6066 21.4731H37.0457V39.4464H42.0946L42.0937 39.4447ZM45.2671 29.4313H42.1799V26.0936H45.2662C46.459 26.0936 47.3151 26.7976 47.3151 27.7629C47.3151 28.7273 46.459 29.4313 45.2662 29.4313H45.2671ZM63.491 39.7016C68.787 39.7016 73.2484 35.4633 73.2484 30.4456C73.2484 25.4269 68.787 21.2153 63.491 21.2153C58.1959 21.2153 53.7346 25.4269 53.7346 30.4456C53.7346 35.4633 58.1959 39.7016 63.491 39.7016ZM63.6199 35.0793C61.1924 35.0793 59.1266 32.9691 59.1266 30.4456C59.1266 27.9478 61.1924 25.8367 63.6199 25.8367C66.0466 25.8367 68.1133 27.9478 68.1133 30.4456C68.1133 32.9691 66.0475 35.0793 63.6199 35.0793ZM80.8768 39.4447V34.0296H82.4422L86.2253 39.4447H91.9915L87.7124 33.3496C89.9044 32.3291 91.2608 30.3149 91.2608 27.7504C91.2608 24.0616 88.4164 21.4722 84.3986 21.4722H75.8155V39.4456H80.8768V39.4447ZM84.0368 29.4313H80.9506V26.0936H84.0368C85.2306 26.0936 86.0857 26.7976 86.0857 27.7629C86.0857 28.7273 85.2297 29.4313 84.0368 29.4313ZM103.382 39.4447V25.9976H108.68V21.4731H93.0182V25.9984H98.3177V39.4456H103.382V39.4447Z" fill="#50922F"/>
</g>
</g>
</g>
<defs>
<clipPath id="clip0_1_84">
<rect width="108" height="40" fill="white" transform="translate(0.97998 0.139893)"/>
</clipPath>
<clipPath id="clip1_1_84">
<rect width="108" height="40" fill="white" transform="translate(0.97998 0.139893)"/>
</clipPath>
<clipPath id="clip2_1_84">
<rect width="108" height="40" fill="white" transform="translate(0.97998 0.139893)"/>
</clipPath>
</defs>
</svg>
