<svg width="304" height="304" viewBox="0 0 304 304" fill="none" xmlns="http://www.w3.org/2000/svg">
<mask id="mask0_1_779" style="mask-type:luminance" maskUnits="userSpaceOnUse" x="0" y="0" width="304" height="304">
<path d="M303.579 19.3081L18.8999 0.950012L0.541862 285.629L285.221 303.987L303.579 19.3081Z" fill="white"/>
</mask>
<g mask="url(#mask0_1_779)">
<path d="M268.486 161.798C263.434 240.137 195.832 299.548 117.493 294.496C123.254 201.317 132.751 61.7273 135.787 10.8047C214.126 15.8565 273.537 83.4586 268.486 161.798Z" fill="#70A2E1"/>
<path d="M268.486 161.798C263.434 240.137 195.832 299.548 117.493 294.496C123.254 201.317 132.751 61.7273 135.787 10.8047C214.126 15.8565 273.537 83.4586 268.486 161.798Z" fill="#70A2E1"/>
<path d="M179.28 13.61L160.985 297.3L74.0001 291.691L92.2944 8.00059L179.28 13.61Z" fill="#3658D3"/>
</g>
</svg>
