<svg width="308" height="374" viewBox="0 0 308 374" fill="none" xmlns="http://www.w3.org/2000/svg">
<path d="M136.247 227.181C137.143 201.976 117.429 180.815 92.2231 179.919C67.0176 179.023 45.8611 198.731 44.9652 223.937C44.0694 249.142 63.7733 270.303 88.9788 271.199C114.184 272.094 135.351 252.387 136.247 227.181Z" fill="#EC5212"/>
<path d="M307.546 243.087C301.447 321.098 233.256 379.396 155.251 373.297C77.2354 367.197 18.9445 299.011 25.0437 221L307.546 243.087Z" fill="#FFD37D"/>
<path d="M150.306 372.288C72.296 366.252 13.9397 298.112 19.9756 220.097C26.0116 142.082 94.1448 83.7234 172.165 89.7597L150.307 372.283L150.306 372.288Z" fill="#77C6B3"/>
</svg>
