<svg width="23" height="460" viewBox="0 0 23 460" fill="none" xmlns="http://www.w3.org/2000/svg">
<path d="M2.91992 459.2C2.91992 286.067 6.60446 137.722 13.9735 14.1647M8.19459 8.1647C8.19459 8.95263 8.34979 9.73285 8.65131 10.4608C8.95284 11.1888 9.3948 11.8502 9.95195 12.4073C10.5091 12.9645 11.1705 13.4065 11.8985 13.708C12.6264 14.0095 13.4067 14.1647 14.1946 14.1647C14.9825 14.1647 15.7627 14.0095 16.4907 13.708C17.2186 13.4065 17.8801 12.9645 18.4372 12.4073C18.9944 11.8502 19.4363 11.1888 19.7379 10.4608C20.0394 9.73285 20.1946 8.95263 20.1946 8.1647C20.1946 6.5734 19.5624 5.04728 18.4372 3.92206C17.312 2.79684 15.7859 2.1647 14.1946 2.1647C12.6033 2.1647 11.0772 2.79684 9.95195 3.92206C8.82673 5.04728 8.19459 6.5734 8.19459 8.1647Z" stroke="#383030" stroke-width="4.0008"/>
</svg>
