<svg width="21" height="20" viewBox="0 0 21 20" fill="none" xmlns="http://www.w3.org/2000/svg">
<mask id="mask0_1_886" style="mask-type:alpha" maskUnits="userSpaceOnUse" x="0" y="0" width="21" height="20">
<g clip-path="url(#clip0_1_886)">
<g clip-path="url(#clip1_1_886)">
<path d="M4.40714 2.98934C4.40684 3.54593 4.1744 4.07961 3.76095 4.47299C3.34749 4.86636 2.78689 5.0872 2.20247 5.08692C1.61804 5.08664 1.05767 4.86527 0.644631 4.4715C0.231589 4.07774 -0.000291935 3.54383 2.75843e-07 2.98724C0.000292487 2.43064 0.232734 1.89696 0.646189 1.50358C1.05965 1.11021 1.62025 0.88937 2.20467 0.889649C2.78909 0.889927 3.34946 1.1113 3.7625 1.50507C4.17555 1.89884 4.40743 2.43274 4.40714 2.98934ZM4.47324 6.64096H0.0661072V19.7784H4.47324V6.64096ZM11.4365 6.64096H7.05142V19.7784H11.3924V12.8844C11.3924 9.0439 16.648 8.68713 16.648 12.8844V19.7784H21V11.4573C21 4.98304 13.2214 5.22438 11.3924 8.40382L11.4365 6.64096Z" fill="#383030"/>
</g>
</g>
</mask>
<g mask="url(#mask0_1_886)">
<rect y="0.889648" width="21" height="18.88" fill="#383030"/>
</g>
<defs>
<clipPath id="clip0_1_886">
<rect width="21" height="18.88" fill="white" transform="translate(0 0.889648)"/>
</clipPath>
<clipPath id="clip1_1_886">
<rect width="21" height="19" fill="white" transform="translate(0 0.889648)"/>
</clipPath>
</defs>
</svg>
