<svg width="75" height="31" viewBox="0 0 75 31" fill="none" xmlns="http://www.w3.org/2000/svg">
<path fill-rule="evenodd" clip-rule="evenodd" d="M63.4575 9.29661C65.7656 9.29661 67.9004 10.0486 69.6351 11.3182V0.289215H74.0674V29.8835H69.6351V28.2657C67.9 29.5365 65.7642 30.2892 63.455 30.2892C58.418 30.2892 54.1975 26.7118 53.1972 21.9631H45.7132C45.4121 22.7847 44.94 23.5553 44.2817 24.2137L40.0383 28.4597C38.8594 29.6385 37.2927 30.2892 35.6264 30.2892C33.9602 30.2892 32.3935 29.6385 31.2146 28.4597L26.9712 24.2137C26.3154 23.5553 25.8408 22.7847 25.5397 21.9631H17.9893V29.8809H13.557V18.8399C13.557 15.4895 12.123 13.7901 9.16815 13.7901C6.21332 13.7901 4.45011 15.7932 4.45011 19.1486V29.8809H0V9.68958H4.45267V12.7005L4.68487 12.379C6.1087 10.3964 8.19342 9.30428 10.5588 9.30428C15.282 9.30428 17.9918 12.2489 17.9918 17.3828V17.5921H25.555C25.8561 16.7858 26.3256 16.0279 26.9737 15.3798L31.2171 11.1338C32.396 9.95494 33.9627 9.30428 35.629 9.30428C37.2952 9.30428 38.8619 9.95494 40.0408 11.1338L44.2843 15.3798C44.9298 16.0254 45.3993 16.7832 45.703 17.5895H53.2074C54.2205 12.8562 58.4307 9.29661 63.4575 9.29661ZM63.4566 13.754C60.1292 13.754 57.4219 16.4614 57.4219 19.7887C57.4219 23.1161 60.1292 25.8234 63.4566 25.8234C66.784 25.8234 69.4913 23.1161 69.4913 19.7887C69.4913 16.4614 66.784 13.754 63.4566 13.754ZM37.2637 14.4229L40.956 18.1177C41.8669 19.0312 41.8669 20.5137 40.956 21.4272L37.2637 25.122C36.8223 25.5635 36.2328 25.8084 35.6077 25.8084C34.9825 25.8084 34.3931 25.5635 33.9517 25.122L30.2594 21.4272C29.3484 20.5137 29.3484 19.0312 30.2594 18.1177L33.9517 14.4229C34.3931 13.9814 34.9825 13.7365 35.6077 13.7365C36.2328 13.7365 36.8223 13.9814 37.2637 14.4229Z" fill="#383030"/>
</svg>
