<svg width="1136" height="221" viewBox="0 0 1136 221" fill="none" xmlns="http://www.w3.org/2000/svg">
<path d="M80 0.139893H1135.98V110.14C1135.98 170.891 1086.73 220.14 1025.98 220.14H80V0.139893Z" fill="white"/>
<rect width="5.31" height="27.53" transform="matrix(1 0 -0.258819 0.965926 1053.55 84.2998)" fill="#383030"/>
<path d="M1071.08 114.86C1069.23 114.86 1067.57 114.512 1066.1 113.816C1064.63 113.111 1063.47 112.146 1062.61 110.921C1061.75 109.696 1061.3 108.295 1061.24 106.718H1066.25C1066.35 107.887 1066.85 108.843 1067.77 109.585C1068.69 110.318 1069.79 110.684 1071.08 110.684C1072.09 110.684 1072.99 110.452 1073.78 109.989C1074.57 109.525 1075.19 108.88 1075.65 108.054C1076.1 107.228 1076.32 106.287 1076.32 105.229C1076.32 104.153 1076.1 103.197 1075.63 102.362C1075.17 101.527 1074.53 100.873 1073.73 100.399C1072.92 99.917 1071.99 99.6758 1070.94 99.6758C1070.09 99.6665 1069.25 99.8242 1068.42 100.149C1067.6 100.474 1066.94 100.901 1066.46 101.429L1061.8 100.664L1063.29 85.9671H1079.82V90.2815H1067.56L1066.74 97.8387H1066.91C1067.44 97.217 1068.18 96.7021 1069.15 96.2938C1070.11 95.8763 1071.17 95.6676 1072.32 95.6676C1074.05 95.6676 1075.59 96.0758 1076.94 96.8923C1078.3 97.6995 1079.36 98.8129 1080.14 100.232C1080.92 101.652 1081.31 103.276 1081.31 105.104C1081.31 106.987 1080.88 108.666 1080 110.142C1079.14 111.608 1077.94 112.763 1076.4 113.607C1074.87 114.442 1073.1 114.86 1071.08 114.86Z" fill="#383030"/>
<rect x="877.69" y="106.14" width="12" height="12" rx="6" stroke="#383030" stroke-width="4"/>
<rect x="-896" y="110.14" width="1771.69" height="4" fill="#383030"/>
</svg>
