<svg width="960" height="221" viewBox="0 0 960 221" fill="none" xmlns="http://www.w3.org/2000/svg">
<path d="M80 0.139893H959.98V110.14C959.98 170.891 910.731 220.14 849.98 220.14H80V0.139893Z" fill="#FFBABA"/>
<rect width="5.31" height="27.53" transform="matrix(1 0 -0.258819 0.965926 877.55 84.2998)" fill="#383030"/>
<path d="M895.082 114.86C893.227 114.86 891.566 114.512 890.1 113.816C888.634 113.111 887.469 112.146 886.607 110.921C885.753 109.696 885.298 108.295 885.243 106.718H890.253C890.346 107.887 890.851 108.843 891.77 109.585C892.689 110.318 893.793 110.684 895.082 110.684C896.094 110.684 896.994 110.452 897.782 109.989C898.571 109.525 899.193 108.88 899.647 108.054C900.102 107.228 900.325 106.287 900.315 105.229C900.325 104.153 900.097 103.197 899.633 102.362C899.169 101.527 898.534 100.873 897.727 100.399C896.919 99.917 895.992 99.6758 894.943 99.6758C894.09 99.6665 893.25 99.8242 892.424 100.149C891.598 100.474 890.944 100.901 890.462 101.429L885.799 100.664L887.289 85.9671H903.822V90.2815H891.561L890.74 97.8387H890.907C891.436 97.217 892.183 96.7021 893.148 96.2938C894.113 95.8763 895.17 95.6676 896.321 95.6676C898.047 95.6676 899.587 96.0758 900.942 96.8923C902.296 97.6995 903.363 98.8129 904.143 100.232C904.922 101.652 905.312 103.276 905.312 105.104C905.312 106.987 904.876 108.666 904.003 110.142C903.14 111.608 901.939 112.763 900.399 113.607C898.868 114.442 897.096 114.86 895.082 114.86Z" fill="#383030"/>
<rect x="701.69" y="106.14" width="12" height="12" rx="6" stroke="#383030" stroke-width="4"/>
<rect x="-896" y="110.14" width="1595.69" height="4" fill="#383030"/>
</svg>
