<svg width="784" height="221" viewBox="0 0 784 221" fill="none" xmlns="http://www.w3.org/2000/svg">
<path d="M80 0.139893H783.98V110.14C783.98 170.891 734.731 220.14 673.98 220.14H80V0.139893Z" fill="#FFD37D"/>
<rect width="5.31" height="27.53" transform="matrix(1 0 -0.258819 0.965926 701.55 84.2998)" fill="#383030"/>
<path d="M719.082 114.86C717.227 114.86 715.566 114.512 714.1 113.816C712.634 113.111 711.469 112.146 710.607 110.921C709.753 109.696 709.298 108.295 709.243 106.718H714.253C714.346 107.887 714.851 108.843 715.77 109.585C716.689 110.318 717.793 110.684 719.082 110.684C720.094 110.684 720.994 110.452 721.782 109.989C722.571 109.525 723.193 108.88 723.647 108.054C724.102 107.228 724.325 106.287 724.315 105.229C724.325 104.153 724.097 103.197 723.633 102.362C723.169 101.527 722.534 100.873 721.727 100.399C720.919 99.917 719.992 99.6758 718.943 99.6758C718.09 99.6665 717.25 99.8242 716.424 100.149C715.598 100.474 714.944 100.901 714.462 101.429L709.799 100.664L711.289 85.9671H727.822V90.2815H715.561L714.74 97.8387H714.907C715.436 97.217 716.183 96.7021 717.148 96.2938C718.113 95.8763 719.17 95.6676 720.321 95.6676C722.047 95.6676 723.587 96.0758 724.942 96.8923C726.296 97.6995 727.363 98.8129 728.143 100.232C728.922 101.652 729.312 103.276 729.312 105.104C729.312 106.987 728.876 108.666 728.003 110.142C727.14 111.608 725.939 112.763 724.399 113.607C722.868 114.442 721.096 114.86 719.082 114.86Z" fill="#383030"/>
<rect x="525.69" y="106.14" width="12" height="12" rx="6" stroke="#383030" stroke-width="4"/>
<rect x="-896" y="110.14" width="1419.69" height="4" fill="#383030"/>
</svg>
