<svg width="53" height="25" viewBox="0 0 53 25" fill="none" xmlns="http://www.w3.org/2000/svg">
<mask id="mask0_1_892" style="mask-type:alpha" maskUnits="userSpaceOnUse" x="0" y="0" width="31" height="25">
<g clip-path="url(#clip0_1_892)">
<g clip-path="url(#clip1_1_892)">
<path d="M15.49 0.339844C16.8143 0.339844 18.1729 0.372823 19.4895 0.426788L21.0447 0.498741L22.5334 0.584186L23.9275 0.675627L25.2006 0.771565C26.5824 0.873916 27.8827 1.44455 28.8727 2.38308C29.8625 3.32162 30.4788 4.56792 30.6129 5.90275L30.6748 6.53984L30.791 7.90396C30.8995 9.31755 30.98 10.8586 30.98 12.3321C30.98 13.8057 30.8995 15.3467 30.791 16.7602L30.6748 18.1244C30.6547 18.3432 30.6346 18.5546 30.6129 18.7615C30.4787 20.0965 29.8623 21.343 28.8721 22.2816C27.8818 23.2202 26.5812 23.7906 25.1991 23.8926L23.929 23.9871L22.5349 24.08L21.0447 24.1655L19.4895 24.2374C18.1571 24.2935 16.8236 24.3225 15.49 24.3244C14.1564 24.3225 12.8229 24.2935 11.4905 24.2374L9.93529 24.1655L8.4467 24.08L7.0526 23.9871L5.77932 23.8926C4.39753 23.7903 3.09731 23.2197 2.10737 22.2811C1.11744 21.3426 0.501216 20.0963 0.367113 18.7615L0.305153 18.1244L0.188978 16.7602C0.0705377 15.2869 0.00750339 13.8098 0 12.3321C0 10.8586 0.080548 9.31755 0.188978 7.90396L0.305153 6.53984C0.32529 6.32098 0.345427 6.10962 0.367113 5.90275C0.501164 4.56816 1.11717 3.32204 2.10678 2.38353C3.0964 1.44504 4.39626 0.874253 5.77777 0.771565L7.0495 0.675627L8.4436 0.584186L9.93374 0.498741L11.4889 0.426788C12.8218 0.370773 14.1559 0.341785 15.49 0.339844ZM15.49 3.33791C14.212 3.33791 12.897 3.37089 11.6175 3.42185L10.1026 3.49231L8.64807 3.57476L7.28185 3.6647L6.03026 3.75914C5.37244 3.80431 4.7524 4.0734 4.28003 4.51874C3.80766 4.96407 3.51348 5.55688 3.44962 6.19207C3.26839 8.0044 3.098 10.2604 3.098 12.3321C3.098 14.4038 3.26839 16.6598 3.44962 18.4721C3.58129 19.7793 4.6532 20.7956 6.03026 20.9051L7.28185 20.998L8.64807 21.0879L10.1026 21.1719L11.6175 21.2423C12.897 21.2933 14.212 21.3263 15.49 21.3263C16.7679 21.3263 18.083 21.2933 19.3625 21.2423L20.8774 21.1719L22.3319 21.0894L23.6981 20.9995L24.9497 20.9051C25.6076 20.8599 26.2276 20.5908 26.7 20.1455C27.1724 19.7001 27.4666 19.1073 27.5304 18.4721C27.7116 16.6598 27.882 14.4038 27.882 12.3321C27.882 10.2604 27.7116 8.0044 27.5304 6.19207C27.4666 5.55688 27.1724 4.96407 26.7 4.51874C26.2276 4.0734 25.6076 3.80431 24.9497 3.75914L23.6981 3.6662L22.3319 3.57625L20.8774 3.49231L19.3625 3.42185C18.0724 3.36814 16.7813 3.34015 15.49 3.33791ZM12.392 8.69695C12.3919 8.55043 12.4288 8.40613 12.4994 8.27655C12.5701 8.14698 12.6724 8.03608 12.7974 7.95348C12.9225 7.87088 13.0665 7.81911 13.217 7.80264C13.3674 7.78617 13.5197 7.80551 13.6606 7.85899L13.7861 7.91895L20.2919 11.5526C20.4214 11.625 20.531 11.7265 20.6114 11.8486C20.6917 11.9706 20.7404 12.1097 20.7533 12.254C20.7663 12.3982 20.743 12.5433 20.6856 12.6769C20.6282 12.8105 20.5383 12.9288 20.4236 13.0217L20.2919 13.1116L13.7861 16.7468C13.655 16.8202 13.5073 16.8616 13.356 16.8672C13.2046 16.8728 13.0541 16.8425 12.9175 16.7789C12.7809 16.7154 12.6626 16.6205 12.5726 16.5025C12.4826 16.3846 12.4238 16.2472 12.4013 16.1022L12.392 15.9673V8.69695Z" fill="#383030"/>
</g>
</g>
</mask>
<g mask="url(#mask0_1_892)">
<rect y="0.339844" width="30.98" height="23.98" fill="#383030"/>
</g>
<defs>
<clipPath id="clip0_1_892">
<rect width="30.98" height="23.98" fill="white" transform="translate(0 0.339844)"/>
</clipPath>
<clipPath id="clip1_1_892">
<rect width="30.98" height="23.9845" fill="white" transform="translate(0 0.339844)"/>
</clipPath>
</defs>
</svg>
